<svg xmlns="http://www.w3.org/2000/svg" width="80" height="33"><g fill="#53CEEA" fill-rule="evenodd"><path d="M25.414 11.416a.543.543 0 01-.53-.65 2.223 2.223 0 011.903-1.747c.366-.047.725-.102 1.074-.17.708-.134.96-.7.96-1.141 0-.45-.244-.978-.926-1.11-.96-.18-1.656-.872-1.828-1.773-.144-.74-.67-.984-1.12-.984h-.005c-.442.001-1.007.252-1.146.956-.067.348-.122.706-.168 1.071a2.222 2.222 0 01-1.93 1.927 15.85 15.85 0 00-1.634.287c-1.866.43-3.774.533-5.674.303a.536.536 0 01-.472-.6.53.53 0 01.602-.47c1.774.213 3.556.118 5.3-.284.543-.126 1.133-.23 1.744-.305.518-.066.926-.473.99-.99.05-.39.109-.77.18-1.143.245-1.262 1.285-1.828 2.208-1.83h.004c.906 0 1.93.555 2.17 1.797.1.526.459.88.918.967 1.314.253 1.87 1.275 1.87 2.182-.004.92-.573 1.958-1.836 2.2-.375.07-.754.13-1.146.18a1.14 1.14 0 00-.977.898.543.543 0 01-.531.429zM7.983 18.66a.54.54 0 01-.535-.617 12.327 12.327 0 00-.262-4.84 16.932 16.932 0 01-.404-2.124 1.139 1.139 0 00-.99-.99 18.68 18.68 0 01-1.146-.18C3.378 9.667 2.81 8.63 2.81 7.71c0-.907.556-1.93 1.803-2.17.526-.099.88-.453.969-.916.252-1.304 1.276-1.86 2.186-1.86.927.002 1.967.568 2.207 1.83.072.372.135.754.181 1.142.06.471.409.861.872.969.29.068.472.358.405.648a.537.537 0 01-.65.402 2.232 2.232 0 01-1.7-1.886 14.254 14.254 0 00-.17-1.071c-.134-.704-.699-.955-1.145-.956-.451 0-.978.243-1.112.923-.181.962-.877 1.653-1.778 1.823-.746.143-.99.67-.986 1.12 0 .443.249 1.008.957 1.142.35.068.711.123 1.078.17a2.222 2.222 0 011.93 1.926c.088.705.214 1.373.374 1.986.447 1.701.544 3.523.287 5.268a.542.542 0 01-.535.461zm-.215 11.113c-.91 0-1.934-.554-2.174-1.797-.101-.524-.455-.878-.918-.966-1.31-.253-1.866-1.274-1.866-2.18 0-.922.568-1.96 1.836-2.201.371-.07.754-.131 1.146-.18.518-.065.927-.472.99-.99a.552.552 0 01.607-.467.538.538 0 01.467.601 2.223 2.223 0 01-1.933 1.926 16.02 16.02 0 00-1.074.17c-.708.134-.957.699-.957 1.141-.004.45.24.977.923 1.11.964.182 1.66.873 1.832 1.773.143.74.67.983 1.12.983.447-.001 1.012-.25 1.147-.955.067-.349.126-.706.168-1.072.13-1.008.923-1.8 1.934-1.927.564-.07 1.112-.167 1.634-.286a16.386 16.386 0 015.46-.329.543.543 0 01.48.593.537.537 0 01-.594.479 15.37 15.37 0 00-5.102.307c-.556.128-1.145.23-1.744.306a1.148 1.148 0 00-.994.99c-.046.39-.11.77-.18 1.143-.241 1.262-1.281 1.828-2.208 1.828zm17.178 0h-.004c-.923 0-1.963-.566-2.207-1.828a19.07 19.07 0 01-.182-1.142 1.145 1.145 0 00-.884-.974.535.535 0 01-.413-.642.542.542 0 01.645-.41 2.225 2.225 0 011.727 1.892c.046.366.1.723.168 1.072.14.704.704.954 1.146.955h.004c.45 0 .977-.242 1.108-.924.185-.959.88-1.65 1.782-1.822.741-.143.986-.67.986-1.12 0-.442-.253-1.007-.96-1.142a16.02 16.02 0 00-1.075-.169 2.227 2.227 0 01-1.934-1.926 14.772 14.772 0 00-.374-1.986 13.307 13.307 0 01-.32-5.014.544.544 0 01.606-.467.54.54 0 01.468.602 12.12 12.12 0 00.294 4.607c.173.668.308 1.383.4 2.125.068.517.477.924.995.99.392.048.77.108 1.146.179 1.263.242 1.832 1.28 1.836 2.2 0 .907-.556 1.928-1.803 2.168-.526.1-.884.455-.973.917-.253 1.305-1.276 1.86-2.182 1.86z"/><path d="M9.267 12.103a.54.54 0 01-.329-.968 12.13 12.13 0 003.11-3.5 16.67 16.67 0 011.221-1.785 1.14 1.14 0 000-1.4 14.57 14.57 0 01-.682-.935c-.725-1.063-.392-2.196.261-2.85.644-.64 1.76-.97 2.814-.262.434.297.948.298 1.335.036 1.104-.744 2.224-.414 2.865.227.653.653.985 1.786.265 2.85a19.27 19.27 0 01-.682.934 1.128 1.128 0 00-.097 1.26.536.536 0 01-.207.733.535.535 0 01-.733-.205 2.205 2.205 0 01.182-2.45 15.1 15.1 0 00.64-.877c.404-.593.181-1.17-.13-1.483-.32-.319-.864-.523-1.446-.132-.808.548-1.79.55-2.548.034-.632-.423-1.175-.22-1.491.098-.316.313-.54.89-.135 1.482.202.294.417.588.64.878a2.21 2.21 0 01.004 2.724A15.332 15.332 0 0012.98 8.18a13.275 13.275 0 01-3.38 3.812.553.553 0 01-.333.111zm21.151 8.33c-.413 0-.847-.119-1.272-.406-.312-.212-.628-.44-.935-.68a1.152 1.152 0 00-1.302-.073.538.538 0 01-.741-.175.535.535 0 01.172-.742 2.242 2.242 0 012.536.138c.291.226.586.44.88.64.595.401 1.172.18 1.488-.133.316-.317.518-.862.13-1.437-.551-.807-.551-1.785-.033-2.543.42-.624.219-1.169-.097-1.486-.316-.312-.893-.533-1.487-.134-.295.2-.59.414-.88.64a2.231 2.231 0 01-2.735 0c-.45-.35-.91-.67-1.36-.95a16.298 16.298 0 01-4.347-3.942.535.535 0 01.1-.756.543.543 0 01.759.1 15.248 15.248 0 004.06 3.684c.485.3.97.64 1.454 1.013.413.32.99.321 1.403-.001.307-.24.623-.467.935-.679 1.07-.724 2.207-.39 2.86.262.645.64.973 1.755.266 2.803-.304.442-.304.943-.038 1.331.745 1.103.417 2.217-.228 2.858a2.28 2.28 0 01-1.588.669zM11.673 24.03a.54.54 0 01-.422-.204 15.243 15.243 0 00-3.896-3.466c-.48-.3-.969-.64-1.45-1.013-.412-.32-.99-.32-1.402 0-.312.24-.623.468-.94.68-1.07.721-2.202.39-2.86-.262-.64-.64-.973-1.755-.26-2.803.303-.443.303-.944.037-1.332-.75-1.102-.417-2.217.223-2.857.658-.653 1.79-.988 2.86-.262.317.212.628.439.94.679.38.297.91.322 1.314.064a.538.538 0 11.577.91 2.237 2.237 0 01-2.556-.123 18.614 18.614 0 00-.88-.639c-.595-.4-1.176-.18-1.488.134-.32.317-.522.862-.13 1.437.551.807.551 1.785.029 2.543-.421.624-.219 1.169.101 1.486.312.312.893.534 1.487.133.295-.2.59-.414.88-.64a2.228 2.228 0 012.73 0c.455.35.91.67 1.36.95 1.597.995 3 2.243 4.171 3.71a.537.537 0 01-.088.758.538.538 0 01-.337.117zm6.626 8.503c-.404 0-.83-.117-1.247-.398-.438-.3-.956-.3-1.34-.037-1.103.745-2.224.415-2.864-.226-.653-.652-.986-1.786-.261-2.851.21-.312.438-.625.682-.934a1.13 1.13 0 00.076-1.289.536.536 0 01.181-.74.541.541 0 01.742.18 2.19 2.19 0 01-.148 2.511c-.223.29-.438.584-.64.878-.405.593-.181 1.17.135 1.483.32.319.863.522 1.44.131.813-.55 1.79-.55 2.549-.035.628.423 1.175.221 1.495-.096.312-.313.535-.89.13-1.483a15.252 15.252 0 00-.64-.878 2.21 2.21 0 010-2.723 15.3 15.3 0 001.142-1.67 13.407 13.407 0 013.585-3.962.539.539 0 11.64.868 12.301 12.301 0 00-3.29 3.64 16.907 16.907 0 01-1.221 1.786 1.128 1.128 0 000 1.4c.24.308.467.62.682.933.725 1.065.388 2.2-.265 2.851a2.24 2.24 0 01-1.563.66zM16.487 21.09a.9.9 0 00.649-.264c.181-.176.272-.405.272-.689v-6.77h2.078a.65.65 0 00.512-.215.74.74 0 00.191-.508.737.737 0 00-.195-.505.649.649 0 00-.508-.219h-5.998a.656.656 0 00-.515.219.745.745 0 00-.195.511c0 .195.064.363.192.505.128.142.3.213.518.213h2.084v6.77c0 .283.091.512.272.688a.892.892 0 00.643.264zm24.747-.04c.25 0 .466-.09.646-.27.18-.18.27-.415.27-.706v-6.945h2.071a.64.64 0 00.51-.222.772.772 0 00.191-.521.769.769 0 00-.194-.518.638.638 0 00-.507-.225h-5.975a.645.645 0 00-.513.225.777.777 0 00-.195.525c0 .2.064.372.192.517a.649.649 0 00.516.219h2.077v6.945c0 .29.09.526.27.706.18.18.394.27.64.27zm5.886-.012a.9.9 0 00.65-.267c.183-.178.274-.413.274-.704v-7.46c0-.29-.091-.525-.274-.703a.892.892 0 00-.643-.267.881.881 0 00-.64.267c-.181.178-.271.413-.271.704v7.459c0 .291.089.526.267.704a.87.87 0 00.637.267zm4.052.013c.25 0 .466-.09.647-.267.18-.178.27-.413.27-.704v-2.769h1.778c2.323 0 3.485-.947 3.485-2.84 0-.517-.079-.961-.236-1.332a2.008 2.008 0 00-.691-.88 3.068 3.068 0 00-1.051-.47 5.838 5.838 0 00-1.386-.146h-2.74c-.314 0-.558.109-.732.326-.174.217-.261.49-.261.821v7.29c0 .291.09.526.274.704a.892.892 0 00.643.267zm.917-5.095V13.07h1.701c.298 0 .545.017.743.052.197.035.378.1.541.196a.842.842 0 01.36.43c.077.19.115.432.115.723 0 .3-.038.547-.115.742a.925.925 0 01-.36.453 1.618 1.618 0 01-.554.225 3.841 3.841 0 01-.774.065h-1.657zm11.755 1.668h-3.148l1.574-4.293 1.574 4.293zm1.032 2.82a.936.936 0 00.33.48c.15.106.315.16.498.16a.9.9 0 00.611-.235.754.754 0 00.268-.593.94.94 0 00-.064-.332l-2.796-7.16c-.179-.482-.384-.806-.615-.97a1.405 1.405 0 00-.838-.248c-.327 0-.606.082-.838.247-.231.165-.436.489-.615.97l-2.796 7.16a.94.94 0 00-.064.333c0 .239.09.436.268.593a.902.902 0 00.611.234.834.834 0 00.497-.16.936.936 0 00.331-.478l.574-1.564h4.064l.574 1.564zm13.2-.37l1.892-7.35c.021-.095.032-.175.032-.24a.785.785 0 00-.268-.616.902.902 0 00-.618-.238.804.804 0 00-.512.18c-.151.119-.252.294-.303.524l-1.63 6.82-1.887-6.442c-.102-.374-.25-.645-.442-.815-.194-.169-.443-.254-.749-.254s-.555.085-.749.254c-.193.17-.34.441-.442.815l-1.893 6.443-1.624-6.821c-.051-.23-.152-.405-.303-.525a.804.804 0 00-.513-.179c-.233 0-.44.08-.618.238a.778.778 0 00-.267.61c0 .069.01.151.032.247l1.886 7.349c.08.312.243.555.487.73a1.403 1.403 0 001.64-.007c.251-.178.42-.435.51-.77l1.854-6.358 1.854 6.359c.09.334.259.59.51.769.25.178.526.267.828.267.297 0 .567-.087.809-.26.242-.175.403-.418.484-.73z"/></g></svg>